<mxfile host="app.diagrams.net" modified="2023-11-09T11:00:53.464Z" agent="Mozilla/5.0 (Windows NT 10.0; Win64; x64) AppleWebKit/537.36 (KHTML, like Gecko) Chrome/118.0.0.0 Safari/537.36" version="22.1.0" etag="qCwJGvQkeXvRtdnVMznj" type="github">
  <diagram name="Trang-1" id="bybcswtj557N1VYoIJid">
    <mxGraphModel>
      <root>
        <mxCell id="0" />
        <mxCell id="1" parent="0" />
      </root>
    </mxGraphModel>
  </diagram>
</mxfile>
